<svg width="554" height="102" viewBox="0 0 554 102" fill="none" xmlns="http://www.w3.org/2000/svg">
<rect width="102" height="102" fill="#CD1111"/>
<path d="M50 16L58.2624 42.7376H85L63.3688 59.2624L71.6312 86L50 69.4752L28.3688 86L36.4873 64.0597L44.3513 65.4963L15 42.7376H41.7376L50 16Z" fill="white"/>
<rect x="113" width="102" height="102" fill="#F9F9F9"/>
<path d="M163 16L171.262 42.7376H198L176.369 59.2624L184.631 86L163 69.4752L141.369 86L149.487 64.0597L157.351 65.4963L128 42.7376H154.738L163 16Z" fill="white"/>
<rect x="226" width="102" height="102" fill="#F9F9F9"/>
<path d="M276 16L284.262 42.7376H311L289.369 59.2624L297.631 86L276 69.4752L254.369 86L262.487 64.0597L270.351 65.4963L241 42.7376H267.738L276 16Z" fill="white"/>
<rect x="339" width="102" height="102" fill="#F9F9F9"/>
<path d="M389 16L397.262 42.7376H424L402.369 59.2624L410.631 86L389 69.4752L367.369 86L375.487 64.0597L383.351 65.4963L354 42.7376H380.738L389 16Z" fill="white"/>
<rect x="452" width="102" height="102" fill="#F9F9F9"/>
<path d="M502 16L510.262 42.7376H537L515.369 59.2624L523.631 86L502 69.4752L480.369 86L488.487 64.0597L496.351 65.4963L467 42.7376H493.738L502 16Z" fill="white"/>
</svg>
