<svg width="554" height="102" viewBox="0 0 554 102" fill="none" xmlns="http://www.w3.org/2000/svg">
<rect width="102" height="102" fill="#FF8520"/>
<path d="M51 17L59.2624 43.7376H86L64.3688 60.2624L72.6312 87L51 70.4752L29.3688 87L37.4873 65.0597L45.3513 66.4963L16 43.7376H42.7376L51 17Z" fill="#C8C8C8"/>
<rect x="113" width="102" height="102" fill="#FF8522"/>
<path d="M164 17L172.262 43.7376H199L177.369 60.2624L185.631 87L164 70.4752L142.369 87L150.487 65.0597L158.351 66.4963L129 43.7376H155.738L164 17Z" fill="#C8C8C8"/>
<rect x="226" width="102" height="102" fill="#C8C8C8"/>
<path d="M277 17L285.262 43.7376H312L290.369 60.2624L298.631 87L277 70.4752L255.369 87L263.487 65.0597L271.351 66.4963L242 43.7376H268.738L277 17Z" fill="#F5F5F5"/>
<rect x="339" width="102" height="102" fill="#C8C8C8"/>
<path d="M390 17L398.262 43.7376H425L403.369 60.2624L411.631 87L390 70.4752L368.369 87L376.487 65.0597L384.351 66.4963L355 43.7376H381.738L390 17Z" fill="#F5F5F5"/>
<rect x="452" width="102" height="102" fill="#C8C8C8"/>
<path d="M503 17L511.262 43.7376H538L516.369 60.2624L524.631 87L503 70.4752L481.369 87L489.487 65.0597L497.351 66.4963L468 43.7376H494.738L503 17Z" fill="#F5F5F5"/>
</svg>
