<svg width="554" height="102" viewBox="0 0 554 102" fill="none" xmlns="http://www.w3.org/2000/svg">
<rect width="102" height="102" fill="#FF861B"/>
<path d="M52 15L60.2624 41.7376H87L65.3688 58.2624L73.6312 85L52 68.4752L30.3688 85L38.4873 63.0597L46.3513 64.4963L17 41.7376H43.7376L52 15Z" fill="white"/>
<rect x="113" width="102" height="102" fill="#FF861B"/>
<path d="M165 15L173.262 41.7376H200L178.369 58.2624L186.631 85L165 68.4752L143.369 85L151.487 63.0597L159.351 64.4963L130 41.7376H156.738L165 15Z" fill="white"/>
<rect x="226" width="102" height="102" fill="#DCDCE6"/>
<path d="M278 15L286.262 41.7376H313L291.369 58.2624L299.631 85L278 68.4752L256.369 85L264.487 63.0597L272.351 64.4963L243 41.7376H269.738L278 15Z" fill="white"/>
<rect x="339" width="102" height="102" fill="#DCDCE6"/>
<path d="M391 15L399.262 41.7376H426L404.369 58.2624L412.631 85L391 68.4752L369.369 85L377.487 63.0597L385.351 64.4963L356 41.7376H382.738L391 15Z" fill="white"/>
<rect x="452" width="102" height="102" fill="#DCDCE6"/>
<path d="M504 15L512.262 41.7376H539L517.369 58.2624L525.631 85L504 68.4752L482.369 85L490.487 63.0597L498.351 64.4963L469 41.7376H495.738L504 15Z" fill="white"/>
</svg>
