<svg width="554" height="102" viewBox="0 0 554 102" fill="none" xmlns="http://www.w3.org/2000/svg">
<rect width="102" height="102" fill="#FECD04"/>
<rect x="113" width="102" height="102" fill="#FDCD07"/>
<path d="M165 17L156.738 43.7376H130L151.631 60.2624L143.369 87L165 70.4752L186.631 87L178.513 65.0597L170.649 66.4963L200 43.7376H173.262L165 17Z" fill="#F5F5F5"/>
<path d="M276 17L267.738 43.7376H241L262.631 60.2624L254.369 87L276 70.4752L297.631 87L289.513 65.0597L281.649 66.4963L311 43.7376H284.262L276 17Z" fill="#F5F5F5"/>
<path d="M52 17L43.7376 43.7376H17L38.6312 60.2624L30.3688 87L52 70.4752L73.6312 87L65.5127 65.0597L57.6487 66.4963L87 43.7376H60.2624L52 17Z" fill="#F5F5F5"/>
<rect x="226" width="102" height="102" fill="#FDCD07"/>
<path d="M278 17L269.738 43.7376H243L264.631 60.2624L256.369 87L278 70.4752L299.631 87L291.513 65.0597L283.649 66.4963L313 43.7376H286.262L278 17Z" fill="#F5F5F5"/>
<rect x="339" width="102" height="102" fill="#C8C8C8"/>
<path d="M391 17L399.262 43.7376H426L404.369 60.2624L412.631 87L391 70.4752L369.369 87L377.487 65.0597L385.351 66.4963L356 43.7376H382.738L391 17Z" fill="#F5F5F5"/>
<rect x="452" width="102" height="102" fill="#C8C8C8"/>
<path d="M504 17L512.262 43.7376H539L517.369 60.2624L525.631 87L504 70.4752L482.369 87L490.487 65.0597L498.351 66.4963L469 43.7376H495.738L504 17Z" fill="#F5F5F5"/>
</svg>
