<svg width="553" height="102" viewBox="0 0 553 102" fill="none" xmlns="http://www.w3.org/2000/svg">
<rect width="102" height="102" fill="#FFCB01"/>
<rect x="112" width="102" height="102" fill="#FFCB01"/>
<path d="M164 14L172.262 40.7376H199L177.369 57.2624L185.631 84L164 67.4752L142.369 84L150.487 62.0597L158.351 63.4963L129 40.7376H155.738L164 14Z" fill="white"/>
<path d="M275 17L266.738 43.7376H240L261.631 60.2624L253.369 87L275 70.4752L296.631 87L288.513 65.0597L280.649 66.4963L310 43.7376H283.262L275 17Z" fill="white"/>
<rect x="225" width="102" height="102" fill="#FFCB01"/>
<path d="M277 14L285.262 40.7376H312L290.369 57.2624L298.631 84L277 67.4752L255.369 84L263.487 62.0597L271.351 63.4963L242 40.7376H268.738L277 14Z" fill="white"/>
<path d="M51 16L59.2624 42.7376H86L64.3688 59.2624L72.6312 86L51 69.4752L29.3688 86L37.4873 64.0597L45.3513 65.4963L16 42.7376H42.7376L51 16Z" fill="white"/>
<rect x="338" width="102" height="102" fill="#DCDCE6"/>
<path d="M390 14L398.262 40.7376H425L403.369 57.2624L411.631 84L390 67.4752L368.369 84L376.487 62.0597L384.351 63.4963L355 40.7376H381.738L390 14Z" fill="white"/>
<rect x="451" width="102" height="102" fill="#DCDCE6"/>
<path d="M503 14L511.262 40.7376H538L516.369 57.2624L524.631 84L503 67.4752L481.369 84L489.487 62.0597L497.351 63.4963L468 40.7376H494.738L503 14Z" fill="white"/>
</svg>
