<svg width="554" height="103" viewBox="0 0 554 103" fill="none" xmlns="http://www.w3.org/2000/svg">
<rect width="102" height="102" fill="#77CE0D"/>
<path d="M51 16L59.2624 42.7376H86L64.3688 59.2624L72.6312 86L51 69.4752L29.3688 86L37.4873 64.0597L45.3513 65.4963L16 42.7376H42.7376L51 16Z" fill="white"/>
<rect x="113" width="102" height="102" fill="#77CE0D"/>
<path d="M166 15L174.262 41.7376H201L179.369 58.2624L187.631 85L166 68.4752L144.369 85L152.487 63.0597L160.351 64.4963L131 41.7376H157.738L166 15Z" fill="white"/>
<rect x="226" width="102" height="102" fill="#77CE0D"/>
<path d="M279 15L287.262 41.7376H314L292.369 58.2624L300.631 85L279 68.4752L257.369 85L265.487 63.0597L273.351 64.4963L244 41.7376H270.738L279 15Z" fill="white"/>
<rect x="339" width="102" height="102" fill="#77CE0D"/>
<path d="M392 15L400.262 41.7376H427L405.369 58.2624L413.631 85L392 68.4752L370.369 85L378.487 63.0597L386.351 64.4963L357 41.7376H383.738L392 15Z" fill="white"/>
<rect x="452" y="1" width="102" height="102" fill="#DCDCE6"/>
<path d="M505 15L513.262 41.7376H540L518.369 58.2624L526.631 85L505 68.4752L483.369 85L491.487 63.0597L499.351 64.4963L470 41.7376H496.738L505 15Z" fill="white"/>
</svg>
