<svg width="554" height="102" viewBox="0 0 554 102" fill="none" xmlns="http://www.w3.org/2000/svg">
<path d="M0 0H102V102H0V0Z" fill="#00B77B"/>
<path d="M51 16L42.7376 42.7376H16L37.6312 59.2624L29.3688 86L51 69.4752L72.6312 86L64.5127 64.0597L56.6487 65.4963L86 42.7376H59.2624L51 16Z" fill="white"/>
<rect x="113" width="102" height="102" fill="#00B77B"/>
<path d="M166 17L157.738 43.7376H131L152.631 60.2624L144.369 87L166 70.4752L187.631 87L179.513 65.0597L171.649 66.4963L201 43.7376H174.262L166 17Z" fill="white"/>
<rect x="339" width="102" height="102" fill="#00B77B"/>
<path d="M392 17L383.738 43.7376H357L378.631 60.2624L370.369 87L392 70.4752L413.631 87L405.513 65.0597L397.649 66.4963L427 43.7376H400.262L392 17Z" fill="white"/>
<rect x="226" width="102" height="102" fill="#00B77B"/>
<path d="M279 17L270.738 43.7376H244L265.631 60.2624L257.369 87L279 70.4752L300.631 87L292.513 65.0597L284.649 66.4963L314 43.7376H287.262L279 17Z" fill="white"/>
<rect x="452" width="102" height="102" fill="#00B77B"/>
<path d="M505 17L496.738 43.7376H470L491.631 60.2624L483.369 87L505 70.4752L526.631 87L518.513 65.0597L510.649 66.4963L540 43.7376H513.262L505 17Z" fill="white"/>
</svg>
