<svg width="554" height="102" viewBox="0 0 554 102" fill="none" xmlns="http://www.w3.org/2000/svg">
<rect width="102" height="102" fill="#C8C8C8"/>
<path d="M51 21L58.082 43.918H81L62.459 58.082L69.541 81L51 66.8359L32.459 81L39.4177 62.194L46.1582 63.4254L21 43.918H43.918L51 21Z" fill="#F5F5F5"/>
<rect x="113" width="102" height="102" fill="#C8C8C8"/>
<path d="M164 21L171.082 43.918H194L175.459 58.082L182.541 81L164 66.8359L145.459 81L152.418 62.194L159.158 63.4254L134 43.918H156.918L164 21Z" fill="#F5F5F5"/>
<rect x="226" width="102" height="102" fill="#C8C8C8"/>
<path d="M277 21L284.082 43.918H307L288.459 58.082L295.541 81L277 66.8359L258.459 81L265.418 62.194L272.158 63.4254L247 43.918H269.918L277 21Z" fill="#F5F5F5"/>
<rect x="339" width="102" height="102" fill="#C8C8C8"/>
<path d="M390 21L397.082 43.918H420L401.459 58.082L408.541 81L390 66.8359L371.459 81L378.418 62.194L385.158 63.4254L360 43.918H382.918L390 21Z" fill="#F5F5F5"/>
<rect x="452" width="102" height="102" fill="#C8C8C8"/>
<path d="M503 21L510.082 43.918H533L514.459 58.082L521.541 81L503 66.8359L484.459 81L491.418 62.194L498.158 63.4254L473 43.918H495.918L503 21Z" fill="#F5F5F5"/>
</svg>
