<svg width="866" height="1062" viewBox="0 0 866 1062" fill="none" xmlns="http://www.w3.org/2000/svg">
<path d="M-1.17572e-05 860.168C267.14 452.838 404.556 275.26 636.716 -39.0467C636.716 -39.0467 406.41 283.739 324.3 404.237C242.19 524.734 -1.17572e-05 860.168 -1.17572e-05 860.168Z" fill="url(#paint0_linear_28_292)" fill-opacity="0.6"/>
<path d="M833.342 -30.3369C620.363 298.734 510.81 442.195 325.722 696.116C325.722 696.116 509.333 435.345 574.795 337.998C640.257 240.652 833.342 -30.3369 833.342 -30.3369Z" fill="url(#paint1_linear_28_292)" fill-opacity="0.6"/>
<path d="M1025.57 394.209C873.876 630.412 795.846 733.387 664.017 915.649C664.017 915.649 794.794 728.47 841.42 658.596C888.047 588.722 1025.57 394.209 1025.57 394.209Z" fill="url(#paint2_linear_28_292)" fill-opacity="0.6"/>
<rect x="732.055" y="-179.135" width="377.944" height="1095.62" transform="rotate(34.9644 732.055 -179.135)" fill="url(#paint3_linear_28_292)"/>
<rect x="1023.89" y="47.1875" width="202.692" height="1095.62" transform="rotate(34.9644 1023.89 47.1875)" fill="url(#paint4_linear_28_292)"/>
<defs>
<linearGradient id="paint0_linear_28_292" x1="321.041" y1="-40.9227" x2="315.675" y2="862.044" gradientUnits="userSpaceOnUse">
<stop offset="0.192708" stop-color="#018A48" stop-opacity="0.52"/>
<stop offset="0.395833" stop-color="#018A48"/>
<stop offset="0.625" stop-color="#018A48"/>
<stop offset="0.916667" stop-color="#018A48" stop-opacity="0"/>
</linearGradient>
<linearGradient id="paint1_linear_28_292" x1="577.354" y1="697.619" x2="581.711" y2="-31.8398" gradientUnits="userSpaceOnUse">
<stop offset="0.192708" stop-color="#018A48" stop-opacity="0.52"/>
<stop offset="0.395833" stop-color="#018A48"/>
<stop offset="0.625" stop-color="#018A48"/>
<stop offset="0.916667" stop-color="#018A48" stop-opacity="0"/>
</linearGradient>
<linearGradient id="paint2_linear_28_292" x1="843.231" y1="916.719" x2="846.358" y2="393.138" gradientUnits="userSpaceOnUse">
<stop offset="0.192708" stop-color="#018A48" stop-opacity="0.52"/>
<stop offset="0.395833" stop-color="#018A48"/>
<stop offset="0.625" stop-color="#018A48"/>
<stop offset="0.916667" stop-color="#018A48" stop-opacity="0"/>
</linearGradient>
<linearGradient id="paint3_linear_28_292" x1="741.488" y1="-134.618" x2="980.521" y2="877.796" gradientUnits="userSpaceOnUse">
<stop stop-color="#0F4028"/>
<stop offset="1" stop-color="#0F4028" stop-opacity="0"/>
</linearGradient>
<linearGradient id="paint4_linear_28_292" x1="1028.95" y1="91.704" x2="1423.11" y2="987.03" gradientUnits="userSpaceOnUse">
<stop stop-color="#0F4028"/>
<stop offset="1" stop-color="#0F4028" stop-opacity="0"/>
</linearGradient>
</defs>
</svg>
