<svg width="152" height="167" viewBox="0 0 152 167" fill="none" xmlns="http://www.w3.org/2000/svg">
<rect width="5" height="5" fill="#115C43"/>
<rect width="5" height="5" fill="#115C43"/>
<rect y="18" width="5" height="5" fill="#115C43"/>
<rect y="36" width="5" height="5" fill="#115C43"/>
<rect y="54" width="5" height="5" fill="#115C43"/>
<rect y="72" width="5" height="5" fill="#115C43"/>
<rect y="90" width="5" height="5" fill="#115C43"/>
<rect y="108" width="5" height="5" fill="#115C43"/>
<rect y="126" width="5" height="5" fill="#115C43"/>
<rect y="144" width="5" height="5" fill="#115C43"/>
<rect y="162" width="5" height="5" fill="#115C43"/>
<rect y="18" width="5" height="5" fill="#115C43"/>
<rect y="36" width="5" height="5" fill="#115C43"/>
<rect y="54" width="5" height="5" fill="#115C43"/>
<rect y="72" width="5" height="5" fill="#115C43"/>
<rect y="90" width="5" height="5" fill="#115C43"/>
<rect y="108" width="5" height="5" fill="#115C43"/>
<rect y="126" width="5" height="5" fill="#115C43"/>
<rect y="144" width="5" height="5" fill="#115C43"/>
<rect y="162" width="5" height="5" fill="#115C43"/>
<rect x="19" width="5" height="5" fill="#115C43"/>
<rect x="19" width="5" height="5" fill="#115C43"/>
<rect x="19" y="18" width="5" height="5" fill="#115C43"/>
<rect x="19" y="36" width="5" height="5" fill="#115C43"/>
<rect x="19" y="54" width="5" height="5" fill="#115C43"/>
<rect x="19" y="72" width="5" height="5" fill="#115C43"/>
<rect x="19" y="90" width="5" height="5" fill="#115C43"/>
<rect x="19" y="108" width="5" height="5" fill="#115C43"/>
<rect x="19" y="126" width="5" height="5" fill="#115C43"/>
<rect x="19" y="144" width="5" height="5" fill="#115C43"/>
<rect x="19" y="162" width="5" height="5" fill="#115C43"/>
<rect x="19" y="18" width="5" height="5" fill="#115C43"/>
<rect x="19" y="36" width="5" height="5" fill="#115C43"/>
<rect x="19" y="54" width="5" height="5" fill="#115C43"/>
<rect x="19" y="72" width="5" height="5" fill="#115C43"/>
<rect x="19" y="90" width="5" height="5" fill="#115C43"/>
<rect x="19" y="108" width="5" height="5" fill="#115C43"/>
<rect x="19" y="126" width="5" height="5" fill="#115C43"/>
<rect x="19" y="144" width="5" height="5" fill="#115C43"/>
<rect x="19" y="162" width="5" height="5" fill="#115C43"/>
<rect x="38" width="5" height="5" fill="#115C43"/>
<rect x="38" width="5" height="5" fill="#115C43"/>
<rect x="38" y="18" width="5" height="5" fill="#115C43"/>
<rect x="38" y="36" width="5" height="5" fill="#115C43"/>
<rect x="38" y="54" width="5" height="5" fill="#115C43"/>
<rect x="38" y="72" width="5" height="5" fill="#115C43"/>
<rect x="38" y="90" width="5" height="5" fill="#115C43"/>
<rect x="38" y="108" width="5" height="5" fill="#115C43"/>
<rect x="38" y="126" width="5" height="5" fill="#115C43"/>
<rect x="38" y="144" width="5" height="5" fill="#115C43"/>
<rect x="38" y="162" width="5" height="5" fill="#115C43"/>
<rect x="38" y="18" width="5" height="5" fill="#115C43"/>
<rect x="38" y="36" width="5" height="5" fill="#115C43"/>
<rect x="38" y="54" width="5" height="5" fill="#115C43"/>
<rect x="38" y="72" width="5" height="5" fill="#115C43"/>
<rect x="38" y="90" width="5" height="5" fill="#115C43"/>
<rect x="38" y="108" width="5" height="5" fill="#115C43"/>
<rect x="38" y="126" width="5" height="5" fill="#115C43"/>
<rect x="38" y="144" width="5" height="5" fill="#115C43"/>
<rect x="38" y="162" width="5" height="5" fill="#115C43"/>
<rect x="57" width="5" height="5" fill="#115C43"/>
<rect x="57" width="5" height="5" fill="#115C43"/>
<rect x="57" y="18" width="5" height="5" fill="#115C43"/>
<rect x="57" y="36" width="5" height="5" fill="#115C43"/>
<rect x="57" y="54" width="5" height="5" fill="#115C43"/>
<rect x="57" y="72" width="5" height="5" fill="#115C43"/>
<rect x="57" y="90" width="5" height="5" fill="#115C43"/>
<rect x="57" y="108" width="5" height="5" fill="#115C43"/>
<rect x="57" y="126" width="5" height="5" fill="#115C43"/>
<rect x="57" y="144" width="5" height="5" fill="#115C43"/>
<rect x="57" y="162" width="5" height="5" fill="#115C43"/>
<rect x="57" y="18" width="5" height="5" fill="#115C43"/>
<rect x="57" y="36" width="5" height="5" fill="#115C43"/>
<rect x="57" y="54" width="5" height="5" fill="#115C43"/>
<rect x="57" y="72" width="5" height="5" fill="#115C43"/>
<rect x="57" y="90" width="5" height="5" fill="#115C43"/>
<rect x="57" y="108" width="5" height="5" fill="#115C43"/>
<rect x="57" y="126" width="5" height="5" fill="#115C43"/>
<rect x="57" y="144" width="5" height="5" fill="#115C43"/>
<rect x="57" y="162" width="5" height="5" fill="#115C43"/>
<rect x="76" width="5" height="5" fill="#115C43"/>
<rect x="76" width="5" height="5" fill="#115C43"/>
<rect x="76" y="18" width="5" height="5" fill="#115C43"/>
<rect x="76" y="36" width="5" height="5" fill="#115C43"/>
<rect x="76" y="54" width="5" height="5" fill="#115C43"/>
<rect x="76" y="72" width="5" height="5" fill="#115C43"/>
<rect x="76" y="90" width="5" height="5" fill="#115C43"/>
<rect x="76" y="108" width="5" height="5" fill="#115C43"/>
<rect x="76" y="126" width="5" height="5" fill="#115C43"/>
<rect x="76" y="144" width="5" height="5" fill="#115C43"/>
<rect x="76" y="162" width="5" height="5" fill="#115C43"/>
<rect x="76" y="18" width="5" height="5" fill="#115C43"/>
<rect x="76" y="36" width="5" height="5" fill="#115C43"/>
<rect x="76" y="54" width="5" height="5" fill="#115C43"/>
<rect x="76" y="72" width="5" height="5" fill="#115C43"/>
<rect x="76" y="90" width="5" height="5" fill="#115C43"/>
<rect x="76" y="108" width="5" height="5" fill="#115C43"/>
<rect x="76" y="126" width="5" height="5" fill="#115C43"/>
<rect x="76" y="144" width="5" height="5" fill="#115C43"/>
<rect x="76" y="162" width="5" height="5" fill="#115C43"/>
<rect x="95" width="5" height="5" fill="#115C43"/>
<rect x="95" width="5" height="5" fill="#115C43"/>
<rect x="95" y="18" width="5" height="5" fill="#115C43"/>
<rect x="95" y="36" width="5" height="5" fill="#115C43"/>
<rect x="95" y="54" width="5" height="5" fill="#115C43"/>
<rect x="95" y="72" width="5" height="5" fill="#115C43"/>
<rect x="95" y="90" width="5" height="5" fill="#115C43"/>
<rect x="95" y="108" width="5" height="5" fill="#115C43"/>
<rect x="95" y="126" width="5" height="5" fill="#115C43"/>
<rect x="95" y="144" width="5" height="5" fill="#115C43"/>
<rect x="95" y="162" width="5" height="5" fill="#115C43"/>
<rect x="95" y="18" width="5" height="5" fill="#115C43"/>
<rect x="95" y="36" width="5" height="5" fill="#115C43"/>
<rect x="95" y="54" width="5" height="5" fill="#115C43"/>
<rect x="95" y="72" width="5" height="5" fill="#115C43"/>
<rect x="95" y="90" width="5" height="5" fill="#115C43"/>
<rect x="95" y="108" width="5" height="5" fill="#115C43"/>
<rect x="95" y="126" width="5" height="5" fill="#115C43"/>
<rect x="95" y="144" width="5" height="5" fill="#115C43"/>
<rect x="95" y="162" width="5" height="5" fill="#115C43"/>
<rect x="114" width="5" height="5" fill="#115C43"/>
<rect x="114" width="5" height="5" fill="#115C43"/>
<rect x="114" y="18" width="5" height="5" fill="#115C43"/>
<rect x="114" y="36" width="5" height="5" fill="#115C43"/>
<rect x="114" y="54" width="5" height="5" fill="#115C43"/>
<rect x="114" y="72" width="5" height="5" fill="#115C43"/>
<rect x="114" y="90" width="5" height="5" fill="#115C43"/>
<rect x="114" y="108" width="5" height="5" fill="#115C43"/>
<rect x="114" y="126" width="5" height="5" fill="#115C43"/>
<rect x="114" y="144" width="5" height="5" fill="#115C43"/>
<rect x="114" y="162" width="5" height="5" fill="#115C43"/>
<rect x="114" y="18" width="5" height="5" fill="#115C43"/>
<rect x="114" y="36" width="5" height="5" fill="#115C43"/>
<rect x="114" y="54" width="5" height="5" fill="#115C43"/>
<rect x="114" y="72" width="5" height="5" fill="#115C43"/>
<rect x="114" y="90" width="5" height="5" fill="#115C43"/>
<rect x="114" y="108" width="5" height="5" fill="#115C43"/>
<rect x="114" y="126" width="5" height="5" fill="#115C43"/>
<rect x="114" y="144" width="5" height="5" fill="#115C43"/>
<rect x="114" y="162" width="5" height="5" fill="#115C43"/>
<rect x="133" width="5" height="5" fill="#115C43"/>
<rect x="133" width="5" height="5" fill="#115C43"/>
<rect x="133" y="18" width="5" height="5" fill="#115C43"/>
<rect x="133" y="36" width="5" height="5" fill="#115C43"/>
<rect x="133" y="54" width="5" height="5" fill="#115C43"/>
<rect x="133" y="72" width="5" height="5" fill="#115C43"/>
<rect x="133" y="90" width="5" height="5" fill="#115C43"/>
<rect x="133" y="108" width="5" height="5" fill="#115C43"/>
<rect x="133" y="126" width="5" height="5" fill="#115C43"/>
<rect x="133" y="144" width="5" height="5" fill="#115C43"/>
<rect x="133" y="162" width="5" height="5" fill="#115C43"/>
<rect x="133" y="18" width="5" height="5" fill="#115C43"/>
<rect x="133" y="36" width="5" height="5" fill="#115C43"/>
<rect x="133" y="54" width="5" height="5" fill="#115C43"/>
<rect x="133" y="72" width="5" height="5" fill="#115C43"/>
<rect x="133" y="90" width="5" height="5" fill="#115C43"/>
<rect x="133" y="108" width="5" height="5" fill="#115C43"/>
<rect x="133" y="126" width="5" height="5" fill="#115C43"/>
<rect x="133" y="144" width="5" height="5" fill="#115C43"/>
<rect x="133" y="162" width="5" height="5" fill="#115C43"/>
</svg>
