<svg width="118" height="167" viewBox="0 0 118 167" fill="none" xmlns="http://www.w3.org/2000/svg">
<rect x="-1" width="5" height="5" fill="#115C43"/>
<rect x="-1" width="5" height="5" fill="#115C43"/>
<rect x="-1" y="18" width="5" height="5" fill="#115C43"/>
<rect x="-1" y="36" width="5" height="5" fill="#115C43"/>
<rect x="-1" y="54" width="5" height="5" fill="#115C43"/>
<rect x="-1" y="72" width="5" height="5" fill="#115C43"/>
<rect x="-1" y="90" width="5" height="5" fill="#115C43"/>
<rect x="-1" y="108" width="5" height="5" fill="#115C43"/>
<rect x="-1" y="126" width="5" height="5" fill="#115C43"/>
<rect x="-1" y="144" width="5" height="5" fill="#115C43"/>
<rect x="-1" y="162" width="5" height="5" fill="#115C43"/>
<rect x="-1" y="18" width="5" height="5" fill="#115C43"/>
<rect x="-1" y="36" width="5" height="5" fill="#115C43"/>
<rect x="-1" y="54" width="5" height="5" fill="#115C43"/>
<rect x="-1" y="72" width="5" height="5" fill="#115C43"/>
<rect x="-1" y="90" width="5" height="5" fill="#115C43"/>
<rect x="-1" y="108" width="5" height="5" fill="#115C43"/>
<rect x="-1" y="126" width="5" height="5" fill="#115C43"/>
<rect x="-1" y="144" width="5" height="5" fill="#115C43"/>
<rect x="-1" y="162" width="5" height="5" fill="#115C43"/>
<rect x="18" width="5" height="5" fill="#115C43"/>
<rect x="18" width="5" height="5" fill="#115C43"/>
<rect x="18" y="18" width="5" height="5" fill="#115C43"/>
<rect x="18" y="36" width="5" height="5" fill="#115C43"/>
<rect x="18" y="54" width="5" height="5" fill="#115C43"/>
<rect x="18" y="72" width="5" height="5" fill="#115C43"/>
<rect x="18" y="90" width="5" height="5" fill="#115C43"/>
<rect x="18" y="108" width="5" height="5" fill="#115C43"/>
<rect x="18" y="126" width="5" height="5" fill="#115C43"/>
<rect x="18" y="144" width="5" height="5" fill="#115C43"/>
<rect x="18" y="162" width="5" height="5" fill="#115C43"/>
<rect x="18" y="18" width="5" height="5" fill="#115C43"/>
<rect x="18" y="36" width="5" height="5" fill="#115C43"/>
<rect x="18" y="54" width="5" height="5" fill="#115C43"/>
<rect x="18" y="72" width="5" height="5" fill="#115C43"/>
<rect x="18" y="90" width="5" height="5" fill="#115C43"/>
<rect x="18" y="108" width="5" height="5" fill="#115C43"/>
<rect x="18" y="126" width="5" height="5" fill="#115C43"/>
<rect x="18" y="144" width="5" height="5" fill="#115C43"/>
<rect x="18" y="162" width="5" height="5" fill="#115C43"/>
<rect x="37" width="5" height="5" fill="#115C43"/>
<rect x="37" width="5" height="5" fill="#115C43"/>
<rect x="37" y="18" width="5" height="5" fill="#115C43"/>
<rect x="37" y="36" width="5" height="5" fill="#115C43"/>
<rect x="37" y="54" width="5" height="5" fill="#115C43"/>
<rect x="37" y="72" width="5" height="5" fill="#115C43"/>
<rect x="37" y="90" width="5" height="5" fill="#115C43"/>
<rect x="37" y="108" width="5" height="5" fill="#115C43"/>
<rect x="37" y="126" width="5" height="5" fill="#115C43"/>
<rect x="37" y="144" width="5" height="5" fill="#115C43"/>
<rect x="37" y="162" width="5" height="5" fill="#115C43"/>
<rect x="37" y="18" width="5" height="5" fill="#115C43"/>
<rect x="37" y="36" width="5" height="5" fill="#115C43"/>
<rect x="37" y="54" width="5" height="5" fill="#115C43"/>
<rect x="37" y="72" width="5" height="5" fill="#115C43"/>
<rect x="37" y="90" width="5" height="5" fill="#115C43"/>
<rect x="37" y="108" width="5" height="5" fill="#115C43"/>
<rect x="37" y="126" width="5" height="5" fill="#115C43"/>
<rect x="37" y="144" width="5" height="5" fill="#115C43"/>
<rect x="37" y="162" width="5" height="5" fill="#115C43"/>
<rect x="56" width="5" height="5" fill="#115C43"/>
<rect x="56" width="5" height="5" fill="#115C43"/>
<rect x="56" y="18" width="5" height="5" fill="#115C43"/>
<rect x="56" y="36" width="5" height="5" fill="#115C43"/>
<rect x="56" y="54" width="5" height="5" fill="#115C43"/>
<rect x="56" y="72" width="5" height="5" fill="#115C43"/>
<rect x="56" y="90" width="5" height="5" fill="#115C43"/>
<rect x="56" y="108" width="5" height="5" fill="#115C43"/>
<rect x="56" y="126" width="5" height="5" fill="#115C43"/>
<rect x="56" y="144" width="5" height="5" fill="#115C43"/>
<rect x="56" y="162" width="5" height="5" fill="#115C43"/>
<rect x="56" y="18" width="5" height="5" fill="#115C43"/>
<rect x="56" y="36" width="5" height="5" fill="#115C43"/>
<rect x="56" y="54" width="5" height="5" fill="#115C43"/>
<rect x="56" y="72" width="5" height="5" fill="#115C43"/>
<rect x="56" y="90" width="5" height="5" fill="#115C43"/>
<rect x="56" y="108" width="5" height="5" fill="#115C43"/>
<rect x="56" y="126" width="5" height="5" fill="#115C43"/>
<rect x="56" y="144" width="5" height="5" fill="#115C43"/>
<rect x="56" y="162" width="5" height="5" fill="#115C43"/>
<rect x="75" width="5" height="5" fill="#115C43"/>
<rect x="75" width="5" height="5" fill="#115C43"/>
<rect x="75" y="18" width="5" height="5" fill="#115C43"/>
<rect x="75" y="36" width="5" height="5" fill="#115C43"/>
<rect x="75" y="54" width="5" height="5" fill="#115C43"/>
<rect x="75" y="72" width="5" height="5" fill="#115C43"/>
<rect x="75" y="90" width="5" height="5" fill="#115C43"/>
<rect x="75" y="108" width="5" height="5" fill="#115C43"/>
<rect x="75" y="126" width="5" height="5" fill="#115C43"/>
<rect x="75" y="144" width="5" height="5" fill="#115C43"/>
<rect x="75" y="162" width="5" height="5" fill="#115C43"/>
<rect x="75" y="18" width="5" height="5" fill="#115C43"/>
<rect x="75" y="36" width="5" height="5" fill="#115C43"/>
<rect x="75" y="54" width="5" height="5" fill="#115C43"/>
<rect x="75" y="72" width="5" height="5" fill="#115C43"/>
<rect x="75" y="90" width="5" height="5" fill="#115C43"/>
<rect x="75" y="108" width="5" height="5" fill="#115C43"/>
<rect x="75" y="126" width="5" height="5" fill="#115C43"/>
<rect x="75" y="144" width="5" height="5" fill="#115C43"/>
<rect x="75" y="162" width="5" height="5" fill="#115C43"/>
<rect x="94" width="5" height="5" fill="#115C43"/>
<rect x="94" width="5" height="5" fill="#115C43"/>
<rect x="94" y="18" width="5" height="5" fill="#115C43"/>
<rect x="94" y="36" width="5" height="5" fill="#115C43"/>
<rect x="94" y="54" width="5" height="5" fill="#115C43"/>
<rect x="94" y="72" width="5" height="5" fill="#115C43"/>
<rect x="94" y="90" width="5" height="5" fill="#115C43"/>
<rect x="94" y="108" width="5" height="5" fill="#115C43"/>
<rect x="94" y="126" width="5" height="5" fill="#115C43"/>
<rect x="94" y="144" width="5" height="5" fill="#115C43"/>
<rect x="94" y="162" width="5" height="5" fill="#115C43"/>
<rect x="94" y="18" width="5" height="5" fill="#115C43"/>
<rect x="94" y="36" width="5" height="5" fill="#115C43"/>
<rect x="94" y="54" width="5" height="5" fill="#115C43"/>
<rect x="94" y="72" width="5" height="5" fill="#115C43"/>
<rect x="94" y="90" width="5" height="5" fill="#115C43"/>
<rect x="94" y="108" width="5" height="5" fill="#115C43"/>
<rect x="94" y="126" width="5" height="5" fill="#115C43"/>
<rect x="94" y="144" width="5" height="5" fill="#115C43"/>
<rect x="94" y="162" width="5" height="5" fill="#115C43"/>
<rect x="113" width="5" height="5" fill="#115C43"/>
<rect x="113" width="5" height="5" fill="#115C43"/>
<rect x="113" y="18" width="5" height="5" fill="#115C43"/>
<rect x="113" y="36" width="5" height="5" fill="#115C43"/>
<rect x="113" y="54" width="5" height="5" fill="#115C43"/>
<rect x="113" y="72" width="5" height="5" fill="#115C43"/>
<rect x="113" y="90" width="5" height="5" fill="#115C43"/>
<rect x="113" y="108" width="5" height="5" fill="#115C43"/>
<rect x="113" y="126" width="5" height="5" fill="#115C43"/>
<rect x="113" y="144" width="5" height="5" fill="#115C43"/>
<rect x="113" y="162" width="5" height="5" fill="#115C43"/>
<rect x="113" y="18" width="5" height="5" fill="#115C43"/>
<rect x="113" y="36" width="5" height="5" fill="#115C43"/>
<rect x="113" y="54" width="5" height="5" fill="#115C43"/>
<rect x="113" y="72" width="5" height="5" fill="#115C43"/>
<rect x="113" y="90" width="5" height="5" fill="#115C43"/>
<rect x="113" y="108" width="5" height="5" fill="#115C43"/>
<rect x="113" y="126" width="5" height="5" fill="#115C43"/>
<rect x="113" y="144" width="5" height="5" fill="#115C43"/>
<rect x="113" y="162" width="5" height="5" fill="#115C43"/>
</svg>
