<svg width="1440" height="505" viewBox="0 0 1440 505" fill="none" xmlns="http://www.w3.org/2000/svg">
<path d="M-157.935 161.065C-129.849 145.904 -94.218 128.993 -54.422 113.171C-40.4898 100.008 -41.6169 87.6541 -58.506 75.8994C-103.415 44.6433 288.841 -78.0219 392.553 75.8993C502.106 238.489 361.722 298.347 395.562 375.771C429.401 453.195 1586.14 119.258 1504.35 213.868C1462.89 261.831 1446.66 292.649 1443.07 311.643C1433.4 362.892 1515.79 328.06 1443.07 311.643C1374.2 296.094 1166.17 297.066 608.958 403.35C28.8866 513.994 528.947 279.781 378.864 116.045C284.957 13.5958 88.4309 56.3743 -54.422 113.171C-70.1267 128.008 -104.967 143.873 -157.935 161.065Z" fill="#08B67B" fill-opacity="0.07"/>
<path d="M-157.935 234.065C-129.849 218.904 -94.218 201.993 -54.422 186.171C-40.4898 173.008 -41.6169 160.654 -58.506 148.899C-103.415 117.643 288.841 -5.02187 392.553 148.899C502.106 311.489 361.722 371.347 395.562 448.771C429.401 526.195 1586.14 192.258 1504.35 286.868C1462.89 334.831 1446.66 365.649 1443.07 384.643C1433.4 435.892 1515.79 401.06 1443.07 384.643C1374.2 369.094 1166.17 370.066 608.958 476.35C28.8866 586.994 528.947 352.781 378.864 189.045C284.957 86.5958 88.4309 129.374 -54.422 186.171C-70.1267 201.008 -104.967 216.873 -157.935 234.065Z" fill="#D9D9D9" fill-opacity="0.47"/>
</svg>
